<?xml version="1.0" encoding="UTF-8" standalone="no"?>
<svg xmlns="http://www.w3.org/2000/svg" viewBox="0 0 500 500" width="100%" height="100%">
  <!-- G shape -->
  <path d="M 271,102
         L 135,102
         A 37,37 0 0 0 98,139
         L 98,369
         A 37,37 0 0 0 135,406
         L 365,406
         A 37,37 0 0 0 383.5,387.5
         L 250,254"
    fill="none"
    stroke="#2cb3ed"
    stroke-width="45"
    stroke-linecap="butt"
    stroke-linejoin="round" />

  <!-- 3 top-right buttons -->
  <rect x="290" y="80" width="45" height="45" rx="9" fill="none" stroke="#2cb3ed" stroke-width="7" />
  <rect x="355" y="80" width="45" height="45" rx="9" fill="none" stroke="#2cb3ed" stroke-width="7" />
  <rect x="355" y="145" width="45" height="45" rx="9" fill="none" stroke="#2cb3ed" stroke-width="7" />

  <!-- Arrow head triangle -->
  <path
    d="M 195,200 L 315,254 L 250,319"
    fill="#2cb3ed"
    stroke="#2cb3ed"
    stroke-width="2"
    stroke-linejoin="round" />

  <!-- Y character bg -->
  <path d="M 200,204 L 250,254 L 310,254 M 250,254 L 250,314"
    fill="none"
    stroke="#ffffff"
    stroke-width="24"
    stroke-linecap="round"
    stroke-linejoin="round" />

  <!-- Y character fg -->
  <path d="M 200,204 L 250,254 L 310,254 M 250,254 L 250,314"
    fill="none"
    stroke="#2cb3ed"
    stroke-width="12"
    stroke-linecap="round"
    stroke-linejoin="round" />
</svg>
